<svg xmlns="http://www.w3.org/2000/svg" xmlns:xlink="http://www.w3.org/1999/xlink" width="500" zoomAndPan="magnify" viewBox="0 0 375 374.999991" height="500" preserveAspectRatio="xMidYMid meet" version="1.0"><defs><g/><clipPath id="5dbcaf8ced"><path d="M 174 124.3125 L 201 124.3125 L 201 161 L 174 161 Z M 174 124.3125 " clip-rule="nonzero"/></clipPath><clipPath id="803b42ce7c"><path d="M 151.25 147 L 188 147 L 188 175 L 151.25 175 Z M 151.25 147 " clip-rule="nonzero"/></clipPath></defs><rect x="-37.5" width="450" fill="#ffffff" y="-37.499999" height="449.999989" fill-opacity="1"/><rect x="-37.5" width="450" fill="#ffffff" y="-37.499999" height="449.999989" fill-opacity="1"/><path fill="#000000" d="M 195.390625 196.765625 L 179.582031 196.765625 C 176.53125 196.765625 174.035156 194.269531 174.035156 191.21875 L 174.035156 183.542969 L 177.730469 183.542969 L 177.730469 191.21875 C 177.730469 192.238281 178.5625 193.070312 179.582031 193.070312 L 195.390625 193.070312 C 196.410156 193.070312 197.242188 192.238281 197.242188 191.21875 L 197.242188 160.558594 L 200.941406 160.558594 L 200.941406 191.21875 C 200.941406 194.269531 198.460938 196.765625 195.390625 196.765625 Z M 195.390625 196.765625 " fill-opacity="1" fill-rule="nonzero"/><g clip-path="url(#5dbcaf8ced)"><path fill="#ff69b4" d="M 177.730469 160.558594 L 174.035156 160.558594 L 174.035156 129.898438 C 174.035156 126.84375 176.53125 124.347656 179.582031 124.347656 L 195.390625 124.347656 C 198.445312 124.347656 200.941406 126.84375 200.941406 129.898438 L 200.941406 137.570312 L 197.242188 137.570312 L 197.242188 129.898438 C 197.242188 128.878906 196.410156 128.046875 195.390625 128.046875 L 179.582031 128.046875 C 178.5625 128.046875 177.730469 128.878906 177.730469 129.898438 Z M 177.730469 160.558594 " fill-opacity="1" fill-rule="nonzero"/></g><g clip-path="url(#803b42ce7c)"><path fill="#ff69b4" d="M 187.496094 174.019531 L 156.835938 174.019531 C 153.785156 174.019531 151.285156 171.523438 151.285156 168.472656 L 151.285156 152.660156 C 151.285156 149.609375 153.785156 147.113281 156.835938 147.113281 L 164.507812 147.113281 L 164.507812 150.8125 L 156.835938 150.8125 C 155.816406 150.8125 154.984375 151.644531 154.984375 152.660156 L 154.984375 168.472656 C 154.984375 169.488281 155.816406 170.324219 156.835938 170.324219 L 187.496094 170.324219 Z M 187.496094 174.019531 " fill-opacity="1" fill-rule="nonzero"/></g><path fill="#000000" d="M 218.15625 174.019531 L 210.484375 174.019531 L 210.484375 170.324219 L 218.15625 170.324219 C 219.175781 170.324219 220.007812 169.488281 220.007812 168.472656 L 220.007812 152.660156 C 220.007812 151.644531 219.175781 150.8125 218.15625 150.8125 L 187.496094 150.8125 L 187.496094 147.113281 L 218.15625 147.113281 C 221.207031 147.113281 223.707031 149.609375 223.707031 152.660156 L 223.707031 168.472656 C 223.707031 171.523438 221.207031 174.019531 218.15625 174.019531 Z M 218.15625 174.019531 " fill-opacity="1" fill-rule="nonzero"/><g fill="#000000" fill-opacity="1"><g transform="translate(75.761407, 228.662738)"><g><path d="M 11.375 -19.875 C 12.769531 -19.875 14.128906 -19.601562 15.453125 -19.0625 C 16.785156 -18.53125 17.929688 -17.785156 18.890625 -16.828125 L 16.9375 -14.390625 C 16.21875 -15.160156 15.367188 -15.769531 14.390625 -16.21875 C 13.410156 -16.675781 12.421875 -16.90625 11.421875 -16.90625 C 9.441406 -16.90625 7.769531 -16.234375 6.40625 -14.890625 C 5.039062 -13.546875 4.359375 -11.898438 4.359375 -9.953125 C 4.359375 -7.992188 5.039062 -6.335938 6.40625 -4.984375 C 7.769531 -3.640625 9.441406 -2.96875 11.421875 -2.96875 C 13.484375 -2.96875 15.320312 -3.75 16.9375 -5.3125 L 18.921875 -3.109375 C 17.898438 -2.109375 16.710938 -1.316406 15.359375 -0.734375 C 14.003906 -0.148438 12.632812 0.140625 11.25 0.140625 C 8.351562 0.140625 5.914062 -0.820312 3.9375 -2.75 C 1.957031 -4.6875 0.96875 -7.078125 0.96875 -9.921875 C 0.96875 -12.734375 1.96875 -15.09375 3.96875 -17 C 5.976562 -18.914062 8.445312 -19.875 11.375 -19.875 Z M 11.375 -19.875 "/></g></g></g><g fill="#000000" fill-opacity="1"><g transform="translate(99.704135, 228.662738)"><g><path d="M 15.390625 -4.46875 L 5.40625 -4.46875 L 3.5 0 L 0.03125 0 L 8.765625 -19.796875 L 12.1875 -19.796875 L 20.84375 0 L 17.28125 0 Z M 14.109375 -7.4375 L 10.375 -16.234375 L 6.640625 -7.4375 Z M 14.109375 -7.4375 "/></g></g></g><g fill="#000000" fill-opacity="1"><g transform="translate(124.805747, 228.662738)"><g><path d="M 19.765625 0 L 16.484375 0 L 5.9375 -14.203125 L 5.9375 0 L 2.609375 0 L 2.609375 -19.796875 L 5.875 -19.796875 L 16.484375 -5.578125 L 16.484375 -19.796875 L 19.765625 -19.796875 Z M 19.765625 0 "/></g></g></g><g fill="#000000" fill-opacity="1"><g transform="translate(151.433704, 228.662738)"><g><path d="M 11.375 -19.875 C 12.769531 -19.875 14.128906 -19.601562 15.453125 -19.0625 C 16.785156 -18.53125 17.929688 -17.785156 18.890625 -16.828125 L 16.9375 -14.390625 C 16.21875 -15.160156 15.367188 -15.769531 14.390625 -16.21875 C 13.410156 -16.675781 12.421875 -16.90625 11.421875 -16.90625 C 9.441406 -16.90625 7.769531 -16.234375 6.40625 -14.890625 C 5.039062 -13.546875 4.359375 -11.898438 4.359375 -9.953125 C 4.359375 -7.992188 5.039062 -6.335938 6.40625 -4.984375 C 7.769531 -3.640625 9.441406 -2.96875 11.421875 -2.96875 C 13.484375 -2.96875 15.320312 -3.75 16.9375 -5.3125 L 18.921875 -3.109375 C 17.898438 -2.109375 16.710938 -1.316406 15.359375 -0.734375 C 14.003906 -0.148438 12.632812 0.140625 11.25 0.140625 C 8.351562 0.140625 5.914062 -0.820312 3.9375 -2.75 C 1.957031 -4.6875 0.96875 -7.078125 0.96875 -9.921875 C 0.96875 -12.734375 1.96875 -15.09375 3.96875 -17 C 5.976562 -18.914062 8.445312 -19.875 11.375 -19.875 Z M 11.375 -19.875 "/></g></g></g><g fill="#000000" fill-opacity="1"><g transform="translate(175.37643, 228.662738)"><g><path d="M 16.75 -16.796875 L 5.9375 -16.796875 L 5.9375 -11.453125 L 15.609375 -11.453125 L 15.609375 -8.453125 L 5.9375 -8.453125 L 5.9375 -3 L 17.078125 -3 L 17.078125 0 L 2.609375 0 L 2.609375 -19.796875 L 16.75 -19.796875 Z M 16.75 -16.796875 "/></g></g></g><g fill="#000000" fill-opacity="1"><g transform="translate(198.160264, 228.662738)"><g><path d="M 15.15625 0 L 11.53125 -6 C 11.34375 -5.976562 11.046875 -5.96875 10.640625 -5.96875 L 5.9375 -5.96875 L 5.9375 0 L 2.609375 0 L 2.609375 -19.796875 L 10.640625 -19.796875 C 13.160156 -19.796875 15.117188 -19.207031 16.515625 -18.03125 C 17.910156 -16.851562 18.609375 -15.1875 18.609375 -13.03125 C 18.609375 -11.445312 18.253906 -10.109375 17.546875 -9.015625 C 16.835938 -7.921875 15.828125 -7.125 14.515625 -6.625 L 18.953125 0 Z M 5.9375 -8.96875 L 10.640625 -8.96875 C 13.835938 -8.96875 15.4375 -10.296875 15.4375 -12.953125 C 15.4375 -15.515625 13.835938 -16.796875 10.640625 -16.796875 L 5.9375 -16.796875 Z M 5.9375 -8.96875 "/></g></g></g><g fill="#000000" fill-opacity="1"><g transform="translate(222.83789, 228.662738)"><g><path d="M 7.40625 -11.5625 L 8.421875 -11.453125 C 10.117188 -11.304688 11.472656 -10.765625 12.484375 -9.828125 C 13.492188 -8.890625 14 -7.660156 14 -6.140625 C 14 -4.273438 13.34375 -2.757812 12.03125 -1.59375 C 10.71875 -0.4375 8.96875 0.140625 6.78125 0.140625 C 5.582031 0.140625 4.382812 -0.0507812 3.1875 -0.4375 C 1.988281 -0.820312 0.960938 -1.347656 0.109375 -2.015625 L 1.5 -4.71875 C 2.96875 -3.34375 4.65625 -2.65625 6.5625 -2.65625 C 7.863281 -2.65625 8.878906 -2.960938 9.609375 -3.578125 C 10.347656 -4.191406 10.71875 -5.015625 10.71875 -6.046875 C 10.71875 -7.109375 10.351562 -7.914062 9.625 -8.46875 C 8.90625 -9.019531 7.875 -9.296875 6.53125 -9.296875 L 3.796875 -9.296875 L 3.796875 -11.25 L 8.9375 -16.796875 L 1.015625 -16.796875 L 1.015625 -19.765625 L 13.0625 -19.765625 L 13.0625 -17.671875 Z M 7.40625 -11.5625 "/></g></g></g><g fill="#000000" fill-opacity="1"><g transform="translate(242.314645, 228.662738)"><g><path d="M 9.890625 -19.9375 C 12.066406 -19.9375 14.039062 -19.4375 15.8125 -18.4375 L 14.515625 -15.921875 C 13.222656 -16.753906 11.757812 -17.171875 10.125 -17.171875 C 8.257812 -17.171875 6.859375 -16.53125 5.921875 -15.25 C 4.992188 -13.96875 4.554688 -12.222656 4.609375 -10.015625 C 5.660156 -11.878906 7.460938 -12.8125 10.015625 -12.8125 C 11.972656 -12.8125 13.519531 -12.238281 14.65625 -11.09375 C 15.800781 -9.957031 16.375 -8.425781 16.375 -6.5 C 16.375 -4.46875 15.738281 -2.851562 14.46875 -1.65625 C 13.207031 -0.457031 11.523438 0.140625 9.421875 0.140625 C 6.910156 0.140625 4.9375 -0.707031 3.5 -2.40625 C 2.070312 -4.101562 1.359375 -6.46875 1.359375 -9.5 C 1.359375 -12.664062 2.128906 -15.195312 3.671875 -17.09375 C 5.222656 -18.988281 7.296875 -19.9375 9.890625 -19.9375 Z M 9.390625 -10.1875 C 8.085938 -10.1875 7.050781 -9.820312 6.28125 -9.09375 C 5.507812 -8.363281 5.128906 -7.472656 5.140625 -6.421875 C 5.128906 -5.460938 5.472656 -4.609375 6.171875 -3.859375 C 6.878906 -3.117188 7.90625 -2.75 9.25 -2.75 C 10.476562 -2.75 11.453125 -3.082031 12.171875 -3.75 C 12.898438 -4.414062 13.265625 -5.34375 13.265625 -6.53125 C 13.265625 -7.664062 12.921875 -8.554688 12.234375 -9.203125 C 11.546875 -9.859375 10.597656 -10.1875 9.390625 -10.1875 Z M 9.390625 -10.1875 "/></g></g></g><g fill="#000000" fill-opacity="1"><g transform="translate(263.939594, 228.662738)"><g><path d="M 9.78125 -19.875 C 12.476562 -19.875 14.550781 -19.007812 16 -17.28125 C 17.457031 -15.5625 18.1875 -13.097656 18.1875 -9.890625 C 18.1875 -6.691406 17.457031 -4.226562 16 -2.5 C 14.550781 -0.78125 12.476562 0.078125 9.78125 0.078125 C 7.070312 0.078125 4.988281 -0.78125 3.53125 -2.5 C 2.082031 -4.226562 1.359375 -6.691406 1.359375 -9.890625 C 1.359375 -13.097656 2.082031 -15.5625 3.53125 -17.28125 C 4.988281 -19.007812 7.070312 -19.875 9.78125 -19.875 Z M 9.78125 -17.25 C 6.445312 -17.25 4.78125 -14.796875 4.78125 -9.890625 C 4.78125 -4.992188 6.445312 -2.546875 9.78125 -2.546875 C 13.101562 -2.546875 14.765625 -4.992188 14.765625 -9.890625 C 14.765625 -14.796875 13.101562 -17.25 9.78125 -17.25 Z M 9.78125 -17.25 "/></g></g></g><g fill="#000000" fill-opacity="1"><g transform="translate(287.712725, 228.662738)"><g><path d="M 2.203125 -20.703125 C 3.109375 -21.535156 4.285156 -21.953125 5.734375 -21.953125 C 7.191406 -21.953125 8.375 -21.535156 9.28125 -20.703125 C 10.195312 -19.867188 10.65625 -18.773438 10.65625 -17.421875 C 10.65625 -16.066406 10.195312 -14.972656 9.28125 -14.140625 C 8.375 -13.304688 7.191406 -12.890625 5.734375 -12.890625 C 4.285156 -12.890625 3.109375 -13.304688 2.203125 -14.140625 C 1.296875 -14.972656 0.84375 -16.066406 0.84375 -17.421875 C 0.84375 -18.773438 1.296875 -19.867188 2.203125 -20.703125 Z M 7.609375 -19.34375 C 7.140625 -19.832031 6.515625 -20.078125 5.734375 -20.078125 C 4.960938 -20.078125 4.335938 -19.832031 3.859375 -19.34375 C 3.378906 -18.851562 3.140625 -18.203125 3.140625 -17.390625 C 3.140625 -16.578125 3.378906 -15.925781 3.859375 -15.4375 C 4.335938 -14.945312 4.960938 -14.703125 5.734375 -14.703125 C 6.515625 -14.703125 7.140625 -14.945312 7.609375 -15.4375 C 8.078125 -15.925781 8.3125 -16.578125 8.3125 -17.390625 C 8.3125 -18.203125 8.078125 -18.851562 7.609375 -19.34375 Z M 7.609375 -19.34375 "/></g></g></g><g fill="#ff69b4" fill-opacity="1"><g transform="translate(131.576401, 248.687928)"><g><path d="M 5.4375 -1.578125 L 1.90625 -1.578125 L 1.234375 0 L 0.015625 0 L 3.09375 -7 L 4.3125 -7 L 7.375 0 L 6.109375 0 Z M 4.984375 -2.625 L 3.671875 -5.734375 L 2.34375 -2.625 Z M 4.984375 -2.625 "/></g></g></g><g fill="#ff69b4" fill-opacity="1"><g transform="translate(141.453484, 248.687928)"><g><path d="M 2.09375 -1.0625 L 5.125 -1.0625 L 5.125 0 L 0.921875 0 L 0.921875 -7 L 2.09375 -7 Z M 2.09375 -1.0625 "/></g></g></g><g fill="#ff69b4" fill-opacity="1"><g transform="translate(149.291367, 248.687928)"><g><path d="M 8.125 0 L 6.90625 0 L 5.25 -5.453125 L 3.5625 0 L 2.34375 0 L 0.03125 -7 L 1.296875 -7 L 3 -1.3125 L 4.6875 -6.984375 L 5.84375 -7 L 7.546875 -1.3125 L 9.234375 -7 L 10.453125 -7 Z M 8.125 0 "/></g></g></g><g fill="#ff69b4" fill-opacity="1"><g transform="translate(162.147278, 248.687928)"><g><path d="M 5.4375 -1.578125 L 1.90625 -1.578125 L 1.234375 0 L 0.015625 0 L 3.09375 -7 L 4.3125 -7 L 7.375 0 L 6.109375 0 Z M 4.984375 -2.625 L 3.671875 -5.734375 L 2.34375 -2.625 Z M 4.984375 -2.625 "/></g></g></g><g fill="#ff69b4" fill-opacity="1"><g transform="translate(172.024361, 248.687928)"><g><path d="M 3.796875 -2.328125 L 3.796875 0 L 2.625 0 L 2.625 -2.296875 L 0.015625 -7 L 1.203125 -7 L 3.203125 -3.59375 L 5.15625 -7 L 6.359375 -7 Z M 3.796875 -2.328125 "/></g></g></g><g fill="#ff69b4" fill-opacity="1"><g transform="translate(180.89185, 248.687928)"><g><path d="M 3.21875 -7.046875 C 4.125 -7.046875 4.941406 -6.804688 5.671875 -6.328125 L 5.1875 -5.296875 C 4.46875 -5.722656 3.78125 -5.9375 3.125 -5.9375 C 2.769531 -5.9375 2.488281 -5.875 2.28125 -5.75 C 2.082031 -5.625 1.984375 -5.441406 1.984375 -5.203125 C 1.984375 -4.972656 2.078125 -4.773438 2.265625 -4.609375 C 2.453125 -4.453125 2.6875 -4.332031 2.96875 -4.25 C 3.25 -4.175781 3.550781 -4.082031 3.875 -3.96875 C 4.207031 -3.851562 4.507812 -3.726562 4.78125 -3.59375 C 5.0625 -3.46875 5.296875 -3.265625 5.484375 -2.984375 C 5.671875 -2.703125 5.765625 -2.367188 5.765625 -1.984375 C 5.765625 -1.367188 5.519531 -0.875 5.03125 -0.5 C 4.539062 -0.132812 3.90625 0.046875 3.125 0.046875 C 2.582031 0.046875 2.0625 -0.0507812 1.5625 -0.25 C 1.0625 -0.457031 0.628906 -0.726562 0.265625 -1.0625 L 0.765625 -2.09375 C 1.117188 -1.757812 1.503906 -1.503906 1.921875 -1.328125 C 2.347656 -1.148438 2.753906 -1.0625 3.140625 -1.0625 C 3.554688 -1.0625 3.878906 -1.132812 4.109375 -1.28125 C 4.335938 -1.4375 4.453125 -1.648438 4.453125 -1.921875 C 4.453125 -2.160156 4.359375 -2.359375 4.171875 -2.515625 C 3.984375 -2.679688 3.75 -2.800781 3.46875 -2.875 C 3.1875 -2.957031 2.878906 -3.050781 2.546875 -3.15625 C 2.222656 -3.269531 1.921875 -3.390625 1.640625 -3.515625 C 1.367188 -3.640625 1.140625 -3.835938 0.953125 -4.109375 C 0.765625 -4.378906 0.671875 -4.707031 0.671875 -5.09375 C 0.671875 -5.6875 0.898438 -6.160156 1.359375 -6.515625 C 1.828125 -6.867188 2.445312 -7.046875 3.21875 -7.046875 Z M 3.21875 -7.046875 "/></g></g></g><g fill="#ff69b4" fill-opacity="1"><g transform="translate(189.609397, 248.687928)"><g/></g></g><g fill="#ff69b4" fill-opacity="1"><g transform="translate(194.688377, 248.687928)"><g><path d="M 5.703125 -5.9375 L 3.484375 -5.9375 L 3.484375 0 L 2.296875 0 L 2.296875 -5.9375 L 0.09375 -5.9375 L 0.09375 -7 L 5.703125 -7 Z M 5.703125 -5.9375 "/></g></g></g><g fill="#ff69b4" fill-opacity="1"><g transform="translate(202.976084, 248.687928)"><g><path d="M 6.984375 0 L 5.8125 0 L 5.8125 -2.90625 L 2.09375 -2.90625 L 2.09375 0 L 0.921875 0 L 0.921875 -7 L 2.09375 -7 L 2.09375 -3.953125 L 5.8125 -3.953125 L 5.8125 -7 L 6.984375 -7 Z M 6.984375 0 "/></g></g></g><g fill="#ff69b4" fill-opacity="1"><g transform="translate(213.382963, 248.687928)"><g><path d="M 5.921875 -5.9375 L 2.09375 -5.9375 L 2.09375 -4.046875 L 5.515625 -4.046875 L 5.515625 -2.984375 L 2.09375 -2.984375 L 2.09375 -1.0625 L 6.046875 -1.0625 L 6.046875 0 L 0.921875 0 L 0.921875 -7 L 5.921875 -7 Z M 5.921875 -5.9375 "/></g></g></g><g fill="#ff69b4" fill-opacity="1"><g transform="translate(222.440377, 248.687928)"><g><path d="M 5.359375 0 L 4.078125 -2.125 C 4.015625 -2.113281 3.910156 -2.109375 3.765625 -2.109375 L 2.09375 -2.109375 L 2.09375 0 L 0.921875 0 L 0.921875 -7 L 3.765625 -7 C 4.648438 -7 5.335938 -6.789062 5.828125 -6.375 C 6.328125 -5.957031 6.578125 -5.367188 6.578125 -4.609375 C 6.578125 -4.046875 6.453125 -3.570312 6.203125 -3.1875 C 5.953125 -2.800781 5.59375 -2.519531 5.125 -2.34375 L 6.703125 0 Z M 2.09375 -3.171875 L 3.765625 -3.171875 C 4.890625 -3.171875 5.453125 -3.640625 5.453125 -4.578125 C 5.453125 -5.484375 4.890625 -5.9375 3.765625 -5.9375 L 2.09375 -5.9375 Z M 2.09375 -3.171875 "/></g></g></g><g fill="#ff69b4" fill-opacity="1"><g transform="translate(232.167523, 248.687928)"><g><path d="M 5.921875 -5.9375 L 2.09375 -5.9375 L 2.09375 -4.046875 L 5.515625 -4.046875 L 5.515625 -2.984375 L 2.09375 -2.984375 L 2.09375 -1.0625 L 6.046875 -1.0625 L 6.046875 0 L 0.921875 0 L 0.921875 -7 L 5.921875 -7 Z M 5.921875 -5.9375 "/></g></g></g><g fill="#ff69b4" fill-opacity="1"><g transform="translate(241.224937, 248.687928)"><g><path d="M 0.625 -1.046875 C 0.75 -1.171875 0.898438 -1.234375 1.078125 -1.234375 C 1.265625 -1.234375 1.414062 -1.171875 1.53125 -1.046875 C 1.65625 -0.921875 1.71875 -0.765625 1.71875 -0.578125 C 1.71875 -0.390625 1.65625 -0.226562 1.53125 -0.09375 C 1.414062 0.03125 1.265625 0.09375 1.078125 0.09375 C 0.898438 0.09375 0.75 0.03125 0.625 -0.09375 C 0.507812 -0.226562 0.453125 -0.390625 0.453125 -0.578125 C 0.453125 -0.765625 0.507812 -0.921875 0.625 -1.046875 Z M 0.625 -1.046875 "/></g></g></g></svg>