<svg xmlns="http://www.w3.org/2000/svg" xmlns:xlink="http://www.w3.org/1999/xlink" width="500" zoomAndPan="magnify" viewBox="0 0 375 374.999991" height="500" preserveAspectRatio="xMidYMid meet" version="1.0"><defs><clipPath id="728d6fc0a9"><path d="M 139 187 L 236 187 L 236 317.648438 L 139 317.648438 Z M 139 187 " clip-rule="nonzero"/></clipPath><clipPath id="c2b7d9073e"><path d="M 139 57.398438 L 236 57.398438 L 236 188 L 139 188 Z M 139 57.398438 " clip-rule="nonzero"/></clipPath><clipPath id="d07e18d534"><path d="M 57.398438 139 L 188 139 L 188 236 L 57.398438 236 Z M 57.398438 139 " clip-rule="nonzero"/></clipPath><clipPath id="7f8306e0c9"><path d="M 187 139 L 317.648438 139 L 317.648438 236 L 187 236 Z M 187 139 " clip-rule="nonzero"/></clipPath></defs><g clip-path="url(#728d6fc0a9)"><path fill="#000000" d="M 215.835938 317.457031 L 159.085938 317.457031 C 148.136719 317.457031 139.175781 308.496094 139.175781 297.546875 L 139.175781 270 L 152.449219 270 L 152.449219 297.546875 C 152.449219 301.195312 155.4375 304.183594 159.085938 304.183594 L 215.835938 304.183594 C 219.488281 304.183594 222.476562 301.195312 222.476562 297.546875 L 222.476562 187.496094 L 235.75 187.496094 L 235.75 297.546875 C 235.75 308.496094 226.855469 317.457031 215.835938 317.457031 Z M 215.835938 317.457031 " fill-opacity="1" fill-rule="nonzero"/></g><g clip-path="url(#c2b7d9073e)"><path fill="#ff69b4" d="M 152.449219 187.496094 L 139.175781 187.496094 L 139.175781 77.445312 C 139.175781 66.492188 148.136719 57.53125 159.085938 57.53125 L 215.835938 57.53125 C 226.789062 57.53125 235.75 66.492188 235.75 77.445312 L 235.75 104.992188 L 222.476562 104.992188 L 222.476562 77.445312 C 222.476562 73.792969 219.488281 70.808594 215.835938 70.808594 L 159.085938 70.808594 C 155.4375 70.808594 152.449219 73.792969 152.449219 77.445312 Z M 152.449219 187.496094 " fill-opacity="1" fill-rule="nonzero"/></g><g clip-path="url(#d07e18d534)"><path fill="#ff69b4" d="M 187.496094 235.816406 L 77.445312 235.816406 C 66.492188 235.816406 57.53125 226.855469 57.53125 215.902344 L 57.53125 159.152344 C 57.53125 148.203125 66.492188 139.242188 77.445312 139.242188 L 104.992188 139.242188 L 104.992188 152.515625 L 77.445312 152.515625 C 73.792969 152.515625 70.808594 155.503906 70.808594 159.152344 L 70.808594 215.902344 C 70.808594 219.554688 73.792969 222.542969 77.445312 222.542969 L 187.496094 222.542969 Z M 187.496094 235.816406 " fill-opacity="1" fill-rule="nonzero"/></g><g clip-path="url(#7f8306e0c9)"><path fill="#000000" d="M 297.546875 235.816406 L 270 235.816406 L 270 222.542969 L 297.546875 222.542969 C 301.195312 222.542969 304.183594 219.554688 304.183594 215.902344 L 304.183594 159.152344 C 304.183594 155.503906 301.195312 152.515625 297.546875 152.515625 L 187.496094 152.515625 L 187.496094 139.242188 L 297.546875 139.242188 C 308.496094 139.242188 317.457031 148.203125 317.457031 159.152344 L 317.457031 215.902344 C 317.457031 226.855469 308.496094 235.816406 297.546875 235.816406 Z M 297.546875 235.816406 " fill-opacity="1" fill-rule="nonzero"/></g></svg>