<svg id="svg" version="1.1" xmlns="http://www.w3.org/2000/svg" xmlns:xlink="http://www.w3.org/1999/xlink" width="400" height="400" viewBox="0, 0, 400,400"><g id="svgg"><path id="path0" d="M190.000 132.000 C 190.472 132.305,190.379 132.389,189.561 132.394 C 187.799 132.404,186.000 133.533,186.000 134.629 C 186.000 135.163,185.841 135.600,185.647 135.600 C 184.908 135.600,184.796 137.886,184.700 154.917 L 184.600 172.434 187.691 172.333 L 190.783 172.232 190.782 155.297 C 190.782 140.924,190.871 138.272,191.370 137.773 C 191.859 137.284,193.434 137.203,200.679 137.292 L 209.400 137.400 209.443 142.400 L 209.485 147.400 212.443 147.400 L 215.400 147.400 215.429 141.920 C 215.445 138.906,215.310 136.532,215.129 136.644 C 214.948 136.756,214.800 136.471,214.800 136.011 C 214.800 135.551,214.525 135.069,214.188 134.940 C 213.815 134.797,213.665 134.425,213.804 133.988 C 213.979 133.436,213.751 133.209,212.816 133.003 C 212.072 132.840,211.589 132.477,211.572 132.068 C 211.549 131.533,211.475 131.559,211.200 132.200 C 210.960 132.759,210.848 132.814,210.828 132.385 C 210.801 131.801,209.200 131.348,209.200 131.925 C 209.200 132.076,205.150 132.200,200.200 132.200 C 195.250 132.200,191.200 132.065,191.200 131.900 C 191.200 131.735,190.795 131.603,190.300 131.606 C 189.572 131.611,189.515 131.686,190.000 132.000 M189.908 133.925 C 189.995 134.186,189.848 134.400,189.580 134.400 C 189.313 134.400,188.757 134.789,188.344 135.264 C 187.932 135.739,187.488 136.021,187.357 135.891 C 187.227 135.760,187.498 135.247,187.960 134.751 C 188.422 134.255,188.800 133.688,188.800 133.491 C 188.800 132.990,189.716 133.348,189.908 133.925 M187.200 153.400 C 187.200 164.467,187.060 170.400,186.800 170.400 C 186.540 170.400,186.400 164.467,186.400 153.400 C 186.400 142.333,186.540 136.400,186.800 136.400 C 187.060 136.400,187.200 142.333,187.200 153.400 M212.000 141.800 C 212.000 143.800,211.835 145.200,211.600 145.200 C 211.365 145.200,211.200 143.800,211.200 141.800 C 211.200 139.800,211.365 138.400,211.600 138.400 C 211.835 138.400,212.000 139.800,212.000 141.800 M164.630 156.448 C 164.207 156.861,163.611 157.200,163.306 157.200 C 163.002 157.200,162.847 157.353,162.963 157.540 C 163.078 157.727,162.729 158.117,162.186 158.407 C 161.276 158.894,161.044 159.382,161.093 160.700 C 161.103 160.975,160.962 161.200,160.781 161.200 C 160.599 161.200,160.434 165.790,160.414 171.400 C 160.390 177.942,160.520 181.600,160.776 181.600 C 160.995 181.600,161.071 181.870,160.945 182.200 C 160.818 182.530,160.922 182.800,161.175 182.800 C 161.428 182.800,161.582 183.030,161.518 183.312 C 161.453 183.593,161.551 183.818,161.736 183.812 C 161.921 183.805,162.337 184.304,162.660 184.921 C 162.988 185.547,163.546 186.013,163.924 185.975 C 165.143 185.854,165.651 185.994,165.410 186.384 C 165.260 186.627,171.764 186.768,183.129 186.768 L 201.085 186.768 201.113 184.126 C 201.130 182.468,200.949 181.292,200.625 180.968 C 199.872 180.214,167.773 180.137,167.464 180.888 C 167.332 181.209,167.152 181.065,166.980 180.500 C 166.830 180.005,166.537 179.600,166.330 179.600 C 166.122 179.600,166.082 179.825,166.241 180.100 C 166.399 180.375,166.396 180.481,166.234 180.336 C 165.660 179.822,165.977 163.166,166.572 162.570 C 166.951 162.192,168.492 161.993,171.658 161.913 L 176.200 161.800 176.196 159.000 C 176.193 156.562,176.102 156.215,175.496 156.318 C 175.113 156.382,174.800 156.243,174.800 156.007 C 174.800 155.172,165.525 155.573,164.630 156.448 M174.331 158.198 C 174.442 158.309,172.433 158.400,169.867 158.400 C 167.300 158.400,165.200 158.254,165.200 158.075 C 165.200 157.732,173.983 157.850,174.331 158.198 M164.800 158.653 C 164.800 158.792,164.473 159.197,164.072 159.553 C 163.672 159.909,163.194 160.560,163.010 161.000 C 162.716 161.706,162.657 161.719,162.511 161.113 C 162.421 160.735,162.763 159.981,163.273 159.437 C 164.182 158.468,164.800 158.151,164.800 158.653 M164.800 171.200 C 164.800 177.067,164.655 180.400,164.400 180.400 C 164.145 180.400,164.000 177.156,164.000 171.467 C 164.000 163.602,164.113 162.000,164.667 162.000 C 164.740 162.000,164.800 166.140,164.800 171.200 M199.200 182.900 C 199.200 183.065,192.011 183.200,183.224 183.200 C 174.437 183.200,167.164 183.065,167.062 182.900 C 166.960 182.735,174.149 182.600,183.038 182.600 C 191.927 182.600,199.200 182.735,199.200 182.900 M143.014 257.520 C 142.896 257.637,142.800 258.029,142.800 258.391 C 142.800 258.753,142.440 259.436,142.000 259.908 C 141.560 260.380,141.200 260.986,141.200 261.255 C 141.200 262.084,140.257 264.400,139.920 264.400 C 139.744 264.400,139.600 264.760,139.600 265.200 C 139.600 265.867,139.867 266.000,141.200 266.000 C 142.533 266.000,142.800 265.867,142.800 265.200 C 142.800 264.015,145.579 264.034,145.890 265.222 C 146.242 266.570,148.188 266.127,148.241 264.687 C 148.263 264.075,148.128 263.479,147.941 263.363 C 147.753 263.247,147.600 262.786,147.600 262.338 C 147.600 261.890,147.220 260.990,146.756 260.339 C 146.292 259.687,145.888 258.759,145.858 258.277 C 145.805 257.440,143.664 256.869,143.014 257.520 M151.000 261.599 L 151.000 265.998 154.127 265.999 L 157.253 266.000 157.127 264.900 C 157.017 263.945,156.802 263.784,155.500 263.676 L 154.000 263.552 154.000 260.376 L 154.000 257.200 152.500 257.200 L 151.000 257.200 151.000 261.599 M158.868 258.924 C 158.901 259.846,159.170 260.974,159.465 261.432 C 159.761 261.889,159.887 262.380,159.744 262.522 C 159.602 262.664,159.674 263.010,159.905 263.290 C 160.135 263.571,160.386 264.250,160.462 264.800 C 160.754 266.912,164.400 265.951,164.400 263.762 C 164.400 262.545,165.187 262.094,165.247 263.276 C 165.273 263.784,165.273 264.335,165.247 264.500 C 165.221 264.665,165.380 264.800,165.600 264.800 C 165.820 264.800,166.000 265.070,166.000 265.400 C 166.000 265.833,166.444 266.000,167.600 266.000 C 169.111 266.000,169.200 265.933,169.200 264.800 C 169.200 264.140,169.380 263.600,169.600 263.600 C 169.820 263.600,170.000 263.060,170.000 262.400 C 170.000 261.740,170.180 261.200,170.400 261.200 C 170.620 261.200,170.800 260.300,170.800 259.200 C 170.800 257.474,170.691 257.200,170.009 257.200 C 169.215 257.200,167.819 258.891,167.807 259.868 C 167.796 260.724,167.022 260.667,166.885 259.800 C 166.360 256.469,162.980 256.262,162.888 259.555 C 162.837 261.386,162.000 262.236,162.000 260.456 C 162.000 259.563,161.853 259.244,161.532 259.442 C 161.227 259.630,161.145 259.521,161.295 259.129 C 161.638 258.235,160.966 257.414,159.820 257.326 C 158.877 257.254,158.812 257.364,158.868 258.924 M175.784 257.625 C 175.657 257.831,175.698 258.005,175.876 258.012 C 176.054 258.019,175.885 258.208,175.500 258.432 C 175.115 258.656,174.800 259.191,174.800 259.620 C 174.800 260.049,174.609 260.400,174.376 260.400 C 174.143 260.400,174.055 260.565,174.180 260.768 C 174.305 260.970,174.136 261.407,173.804 261.739 C 173.472 262.071,173.200 262.806,173.200 263.371 C 173.200 263.937,173.020 264.400,172.800 264.400 C 172.580 264.400,172.400 264.772,172.400 265.227 C 172.400 265.943,172.600 266.033,173.900 265.899 C 175.006 265.784,175.385 265.567,175.344 265.072 C 175.260 264.048,177.839 264.153,178.493 265.200 C 179.316 266.519,181.288 266.296,181.144 264.900 C 181.082 264.295,180.771 263.485,180.454 263.100 C 180.136 262.715,180.007 262.400,180.167 262.400 C 180.326 262.400,180.173 262.115,179.825 261.768 C 179.477 261.420,179.287 260.982,179.403 260.795 C 179.518 260.608,179.430 260.342,179.207 260.204 C 178.983 260.066,178.800 259.535,178.800 259.025 C 178.800 257.617,176.461 256.531,175.784 257.625 M183.169 257.386 C 182.914 257.500,182.969 258.857,183.236 259.022 C 183.436 259.146,183.600 259.647,183.600 260.135 C 183.600 260.624,183.953 261.278,184.385 261.589 C 184.817 261.901,185.281 262.705,185.415 263.378 C 185.907 265.837,186.020 266.000,187.227 266.000 C 188.326 266.000,188.400 265.900,188.400 264.424 C 188.400 263.557,188.580 262.736,188.800 262.600 C 189.020 262.464,189.200 262.010,189.200 261.590 C 189.200 261.171,189.560 260.635,190.000 260.400 C 191.073 259.826,191.155 257.195,190.100 257.209 C 189.219 257.220,187.798 258.366,187.453 259.345 C 187.120 260.291,186.111 259.582,185.924 258.271 C 185.823 257.558,184.060 256.992,183.169 257.386 M195.200 257.600 C 195.200 257.820,194.769 258.000,194.243 258.000 C 193.359 258.000,193.287 258.152,193.306 259.985 C 193.317 261.076,193.459 261.887,193.621 261.787 C 193.783 261.687,194.015 261.862,194.136 262.177 C 194.279 262.551,194.050 262.794,193.478 262.875 C 191.668 263.133,193.149 265.784,195.278 266.097 C 196.799 266.320,198.998 265.900,199.006 265.384 C 199.009 265.173,199.151 264.782,199.320 264.516 C 199.710 263.902,199.544 261.187,199.132 261.442 C 198.866 261.606,196.400 260.556,196.400 260.279 C 196.400 260.224,197.129 260.248,198.020 260.333 C 199.572 260.481,199.633 260.444,199.497 259.427 C 199.291 257.890,195.200 256.151,195.200 257.600 M207.286 257.846 C 206.601 258.580,206.608 258.494,207.146 259.500 C 207.452 260.072,208.000 260.400,208.647 260.400 C 209.652 260.400,209.664 260.436,209.533 263.143 L 209.400 265.886 210.800 265.843 L 212.200 265.800 212.318 263.100 C 212.429 260.568,212.623 260.183,213.700 260.353 C 213.865 260.379,213.955 260.175,213.900 259.900 C 213.845 259.625,214.024 259.445,214.297 259.499 C 214.824 259.604,214.798 258.554,214.252 257.680 C 213.805 256.962,207.982 257.101,207.286 257.846 M216.896 257.995 C 216.597 258.474,216.400 260.219,216.400 262.395 L 216.400 266.000 218.000 266.000 C 219.511 266.000,219.600 265.933,219.600 264.800 C 219.600 263.691,219.708 263.600,221.029 263.600 C 222.352 263.600,222.448 263.681,222.329 264.700 C 222.210 265.715,222.308 265.800,223.600 265.800 L 225.000 265.800 225.116 262.300 C 225.181 260.332,225.069 258.800,224.860 258.800 C 224.656 258.800,224.514 258.485,224.544 258.100 C 224.585 257.587,224.250 257.366,223.290 257.274 L 221.980 257.148 222.090 258.874 C 222.197 260.555,222.166 260.603,220.900 260.725 C 219.623 260.848,219.149 259.671,219.575 257.432 C 219.614 257.230,219.365 257.297,219.023 257.581 C 218.602 257.930,218.400 257.952,218.400 257.649 C 218.400 256.916,217.431 257.138,216.896 257.995 M227.800 261.567 L 227.800 265.998 231.300 265.999 C 234.919 266.000,235.865 265.382,234.270 264.059 C 233.871 263.727,233.823 263.100,234.074 261.510 C 234.782 257.024,235.054 257.425,231.200 257.272 L 227.800 257.137 227.800 261.567 M237.400 261.596 L 237.400 265.998 238.477 265.999 C 239.121 266.000,239.793 265.660,240.146 265.155 L 240.738 264.311 241.644 265.155 C 243.420 266.810,245.628 266.116,244.641 264.213 C 244.273 263.505,244.014 263.322,243.874 263.672 C 243.758 263.962,243.649 264.009,243.632 263.775 C 243.614 263.542,243.966 262.958,244.414 262.477 C 245.576 261.230,244.835 258.000,243.386 258.000 C 243.064 258.000,242.800 257.865,242.800 257.700 C 242.800 257.535,241.585 257.354,240.100 257.297 L 237.400 257.194 237.400 261.596 M247.800 261.567 L 247.800 265.998 251.300 265.999 C 254.919 266.000,255.865 265.382,254.270 264.059 C 253.871 263.727,253.823 263.100,254.074 261.510 C 254.782 257.024,255.054 257.425,251.200 257.272 L 247.800 257.137 247.800 261.567 M212.700 260.032 C 212.158 260.348,211.983 261.044,211.923 263.120 L 211.846 265.800 211.703 263.265 C 211.562 260.771,211.967 259.586,212.949 259.612 C 213.197 259.619,213.085 259.808,212.700 260.032 M232.700 259.876 C 232.315 259.976,231.685 259.976,231.300 259.876 C 230.915 259.775,231.230 259.693,232.000 259.693 C 232.770 259.693,233.085 259.775,232.700 259.876 M252.700 259.876 C 252.315 259.976,251.685 259.976,251.300 259.876 C 250.915 259.775,251.230 259.693,252.000 259.693 C 252.770 259.693,253.085 259.775,252.700 259.876 M242.230 260.752 C 241.830 261.398,240.400 261.563,240.400 260.963 C 240.400 260.626,240.811 260.400,241.424 260.400 C 241.987 260.400,242.349 260.558,242.230 260.752 M221.500 263.076 C 221.115 263.176,220.485 263.176,220.100 263.076 C 219.715 262.975,220.030 262.893,220.800 262.893 C 221.570 262.893,221.885 262.975,221.500 263.076 M233.200 263.200 C 233.200 263.420,232.525 263.576,231.700 263.547 L 230.200 263.495 231.600 263.200 C 232.370 263.038,233.045 262.882,233.100 262.853 C 233.155 262.824,233.200 262.980,233.200 263.200 M253.200 263.200 C 253.200 263.420,252.525 263.576,251.700 263.547 L 250.200 263.495 251.600 263.200 C 252.370 263.038,253.045 262.882,253.100 262.853 C 253.155 262.824,253.200 262.980,253.200 263.200 M257.589 264.214 C 256.921 265.018,257.802 266.800,258.868 266.800 C 259.455 266.800,259.600 266.484,259.600 265.200 C 259.600 263.455,258.618 262.974,257.589 264.214 " stroke="none" fill="#fc6cb4" fill-rule="evenodd"></path><path id="path1" d="M188.600 132.000 C 188.457 132.231,188.828 132.397,189.476 132.394 C 190.349 132.389,190.466 132.301,190.000 132.000 C 189.231 131.503,188.907 131.503,188.600 132.000 M191.200 131.900 C 191.200 132.065,195.250 132.200,200.200 132.200 C 205.150 132.200,209.200 132.065,209.200 131.900 C 209.200 131.735,205.150 131.600,200.200 131.600 C 195.250 131.600,191.200 131.735,191.200 131.900 M188.800 133.491 C 188.800 133.688,188.422 134.255,187.960 134.751 C 187.498 135.247,187.227 135.760,187.357 135.891 C 187.488 136.021,187.932 135.739,188.344 135.264 C 188.757 134.789,189.313 134.400,189.580 134.400 C 189.848 134.400,189.995 134.186,189.908 133.925 C 189.716 133.348,188.800 132.990,188.800 133.491 M186.400 153.400 C 186.400 164.467,186.540 170.400,186.800 170.400 C 187.060 170.400,187.200 164.467,187.200 153.400 C 187.200 142.333,187.060 136.400,186.800 136.400 C 186.540 136.400,186.400 142.333,186.400 153.400 M184.582 154.400 C 184.582 163.310,184.635 166.955,184.700 162.500 C 184.764 158.045,184.764 150.755,184.700 146.300 C 184.635 141.845,184.582 145.490,184.582 154.400 M211.200 141.800 C 211.200 143.800,211.365 145.200,211.600 145.200 C 211.835 145.200,212.000 143.800,212.000 141.800 C 212.000 139.800,211.835 138.400,211.600 138.400 C 211.365 138.400,211.200 139.800,211.200 141.800 M209.344 142.400 C 209.344 144.490,209.412 145.345,209.494 144.300 C 209.576 143.255,209.576 141.545,209.494 140.500 C 209.412 139.455,209.344 140.310,209.344 142.400 M174.800 156.043 C 174.800 156.286,175.079 156.378,175.421 156.247 C 175.762 156.116,175.939 156.175,175.814 156.377 C 175.689 156.579,175.733 156.835,175.910 156.945 C 176.088 157.055,176.260 156.797,176.292 156.372 C 176.331 155.855,176.094 155.600,175.575 155.600 C 175.149 155.600,174.800 155.799,174.800 156.043 M165.200 158.075 C 165.200 158.254,167.300 158.400,169.867 158.400 C 172.433 158.400,174.442 158.309,174.331 158.198 C 173.983 157.850,165.200 157.732,165.200 158.075 M163.273 159.437 C 162.763 159.981,162.421 160.735,162.511 161.113 C 162.657 161.719,162.716 161.706,163.010 161.000 C 163.194 160.560,163.672 159.909,164.072 159.553 C 164.473 159.197,164.800 158.792,164.800 158.653 C 164.800 158.151,164.182 158.468,163.273 159.437 M164.267 162.267 C 163.821 162.713,163.951 180.400,164.400 180.400 C 164.655 180.400,164.800 177.067,164.800 171.200 C 164.800 166.140,164.740 162.000,164.667 162.000 C 164.593 162.000,164.413 162.120,164.267 162.267 M160.400 182.151 C 160.400 182.454,160.670 182.926,161.000 183.200 C 161.415 183.544,161.600 183.559,161.600 183.249 C 161.600 183.002,161.401 182.800,161.157 182.800 C 160.914 182.800,160.818 182.530,160.945 182.200 C 161.071 181.870,161.001 181.600,160.787 181.600 C 160.574 181.600,160.400 181.848,160.400 182.151 M167.062 182.900 C 167.164 183.065,174.437 183.200,183.224 183.200 C 192.011 183.200,199.200 183.065,199.200 182.900 C 199.200 182.735,191.927 182.600,183.038 182.600 C 174.149 182.600,166.960 182.735,167.062 182.900 M213.844 257.528 C 213.715 257.738,213.862 258.120,214.172 258.377 C 214.617 258.746,214.717 258.716,214.646 258.234 C 214.525 257.408,214.132 257.062,213.844 257.528 M150.940 262.000 C 150.940 263.870,151.009 264.635,151.093 263.700 C 151.177 262.765,151.177 261.235,151.093 260.300 C 151.009 259.365,150.940 260.130,150.940 262.000 M222.032 259.475 C 222.007 260.153,221.708 260.386,220.700 260.511 L 219.400 260.672 220.713 260.736 C 222.047 260.801,222.682 260.140,222.269 259.113 C 222.156 258.831,222.049 258.994,222.032 259.475 M227.740 262.000 C 227.740 263.870,227.809 264.635,227.893 263.700 C 227.977 262.765,227.977 261.235,227.893 260.300 C 227.809 259.365,227.740 260.130,227.740 262.000 M237.340 262.000 C 237.340 263.870,237.409 264.635,237.493 263.700 C 237.577 262.765,237.577 261.235,237.493 260.300 C 237.409 259.365,237.340 260.130,237.340 262.000 M247.740 262.000 C 247.740 263.870,247.809 264.635,247.893 263.700 C 247.977 262.765,247.977 261.235,247.893 260.300 C 247.809 259.365,247.740 260.130,247.740 262.000 M213.812 259.580 C 213.665 259.818,213.369 259.905,213.155 259.772 C 212.232 259.202,211.600 260.525,211.600 263.025 C 211.600 264.415,211.735 265.637,211.900 265.739 C 212.065 265.842,212.200 264.637,212.200 263.063 C 212.200 260.362,212.252 260.197,213.113 260.154 C 214.103 260.104,214.668 259.735,214.307 259.373 C 214.182 259.249,213.960 259.342,213.812 259.580 M231.300 259.876 C 231.685 259.976,232.315 259.976,232.700 259.876 C 233.085 259.775,232.770 259.693,232.000 259.693 C 231.230 259.693,230.915 259.775,231.300 259.876 M251.300 259.876 C 251.685 259.976,252.315 259.976,252.700 259.876 C 253.085 259.775,252.770 259.693,252.000 259.693 C 251.230 259.693,250.915 259.775,251.300 259.876 M189.492 260.642 C 189.331 260.802,189.200 261.209,189.200 261.547 C 189.200 261.997,189.318 262.042,189.645 261.715 C 189.890 261.470,190.021 261.063,189.937 260.810 C 189.852 260.557,189.652 260.481,189.492 260.642 M209.254 262.876 C 209.225 264.348,209.335 265.636,209.500 265.739 C 209.665 265.841,209.748 264.997,209.684 263.862 C 209.494 260.453,209.312 260.037,209.254 262.876 M220.100 263.076 C 220.485 263.176,221.115 263.176,221.500 263.076 C 221.885 262.975,221.570 262.893,220.800 262.893 C 220.030 262.893,219.715 262.975,220.100 263.076 M231.600 263.200 L 230.200 263.495 231.700 263.547 C 232.525 263.576,233.200 263.420,233.200 263.200 C 233.200 262.980,233.155 262.824,233.100 262.853 C 233.045 262.882,232.370 263.038,231.600 263.200 M251.600 263.200 L 250.200 263.495 251.700 263.547 C 252.525 263.576,253.200 263.420,253.200 263.200 C 253.200 262.980,253.155 262.824,253.100 262.853 C 253.045 262.882,252.370 263.038,251.600 263.200 M185.200 264.310 C 185.200 264.993,185.377 265.662,185.594 265.796 C 185.840 265.948,185.894 265.545,185.737 264.720 C 185.400 262.951,185.200 262.799,185.200 264.310 M192.432 264.129 C 192.414 264.529,192.657 265.114,192.971 265.429 C 193.788 266.245,194.243 266.137,193.514 265.300 C 193.179 264.915,192.805 264.330,192.684 264.000 C 192.514 263.539,192.456 263.569,192.432 264.129 M148.200 265.014 C 148.200 266.053,148.569 266.298,149.024 265.562 C 149.173 265.321,149.048 264.877,148.747 264.576 C 148.284 264.113,148.200 264.180,148.200 265.014 " stroke="none" fill="#fc6cbc" fill-rule="evenodd"></path><path id="path2" d="M199.067 155.867 C 198.920 156.013,198.800 157.453,198.800 159.067 L 198.800 162.000 215.829 162.000 C 230.053 162.000,232.951 162.094,233.429 162.571 C 233.888 163.031,234.000 164.825,234.000 171.759 L 234.000 180.376 228.900 180.488 L 223.800 180.600 223.683 183.700 L 223.566 186.800 229.360 186.800 C 232.790 186.800,235.254 186.637,235.400 186.400 C 235.536 186.180,235.997 186.000,236.424 186.000 C 236.851 186.000,237.200 185.826,237.200 185.613 C 237.200 185.399,237.501 185.341,237.869 185.482 C 238.377 185.677,238.477 185.577,238.282 185.069 C 238.141 184.701,238.154 184.399,238.313 184.397 C 239.889 184.380,240.344 160.765,238.800 159.108 C 238.360 158.636,238.000 158.044,238.000 157.792 C 238.000 157.541,237.505 157.104,236.900 156.821 C 236.295 156.538,235.487 156.148,235.105 155.953 C 234.307 155.547,199.470 155.463,199.067 155.867 M209.483 170.251 C 209.327 170.406,209.200 178.333,209.200 187.867 L 209.200 205.200 200.480 205.200 C 190.006 205.200,190.800 205.667,190.800 199.503 L 190.800 194.766 187.700 194.883 L 184.600 195.000 184.488 200.368 C 184.419 203.671,184.534 205.894,184.788 206.148 C 185.015 206.375,185.200 206.892,185.200 207.298 C 185.200 208.194,186.926 210.000,187.782 210.000 C 188.122 210.000,188.400 210.180,188.400 210.400 C 188.400 211.027,210.755 210.933,212.117 210.300 C 212.709 210.025,213.195 209.671,213.197 209.513 C 213.199 209.354,213.501 209.341,213.869 209.482 C 214.377 209.677,214.477 209.577,214.282 209.069 C 214.141 208.701,214.199 208.400,214.413 208.400 C 214.626 208.400,214.800 208.076,214.800 207.680 C 214.800 207.284,214.982 206.778,215.204 206.556 C 215.468 206.292,215.572 199.890,215.504 188.176 L 215.400 170.200 212.583 170.084 C 211.033 170.020,209.638 170.095,209.483 170.251 M310.800 220.000 C 310.800 220.220,310.522 220.400,310.182 220.400 C 309.393 220.400,307.600 222.177,307.600 222.958 C 307.600 223.285,307.420 223.664,307.200 223.800 C 306.980 223.936,306.800 224.667,306.800 225.424 C 306.800 226.181,306.980 226.800,307.200 226.800 C 307.420 226.800,307.600 227.263,307.600 227.829 C 307.600 228.986,308.427 230.000,309.371 230.000 C 309.717 230.000,310.000 230.180,310.000 230.400 C 310.000 230.633,311.333 230.800,313.200 230.800 C 315.067 230.800,316.400 230.633,316.400 230.400 C 316.400 230.180,316.715 229.999,317.100 229.997 C 318.993 229.988,319.565 223.129,317.818 221.382 C 317.278 220.842,316.569 220.400,316.242 220.400 C 315.915 220.400,315.536 220.220,315.400 220.000 C 315.264 219.780,314.173 219.600,312.976 219.600 C 311.779 219.600,310.800 219.780,310.800 220.000 M89.200 222.400 C 89.200 222.620,88.784 222.800,88.275 222.800 C 87.767 222.800,87.002 223.115,86.575 223.500 C 86.149 223.885,85.307 224.454,84.705 224.765 C 84.102 225.076,83.383 225.841,83.107 226.465 C 82.831 227.089,82.469 227.600,82.302 227.600 C 82.136 227.600,82.000 227.949,82.000 228.376 C 82.000 228.803,81.820 229.264,81.600 229.400 C 81.379 229.537,81.200 231.337,81.200 233.424 C 81.200 235.675,81.362 237.200,81.600 237.200 C 81.820 237.200,82.000 237.626,82.000 238.146 C 82.000 239.243,85.967 243.600,86.965 243.600 C 87.314 243.600,87.600 243.780,87.600 244.000 C 87.600 244.220,88.320 244.400,89.200 244.400 C 90.080 244.400,90.800 244.580,90.800 244.800 C 90.800 245.020,91.700 245.200,92.800 245.200 C 93.900 245.200,94.800 245.020,94.800 244.800 C 94.800 244.580,95.520 244.400,96.400 244.400 C 97.280 244.400,98.000 244.220,98.000 244.000 C 98.000 243.780,98.235 243.600,98.522 243.600 C 99.192 243.600,102.000 241.039,102.000 240.428 C 102.000 238.816,97.757 236.930,97.289 238.333 C 97.203 238.590,96.803 238.800,96.400 238.800 C 95.997 238.800,95.602 238.995,95.522 239.233 C 95.439 239.483,94.330 239.661,92.891 239.654 C 90.298 239.641,86.800 237.237,86.800 235.468 C 86.800 235.126,86.620 234.736,86.400 234.600 C 86.180 234.464,86.000 233.913,86.000 233.376 C 86.000 232.839,86.180 232.400,86.400 232.400 C 86.620 232.400,86.800 231.985,86.800 231.478 C 86.800 230.396,89.218 227.600,90.154 227.600 C 90.509 227.600,90.800 227.420,90.800 227.200 C 90.800 226.980,91.700 226.800,92.800 226.800 C 93.900 226.800,94.800 226.980,94.800 227.200 C 94.800 227.420,95.120 227.600,95.512 227.600 C 95.903 227.600,96.483 227.960,96.800 228.400 C 97.550 229.440,99.908 229.508,100.292 228.500 C 100.439 228.115,100.884 227.451,101.280 227.025 C 102.281 225.947,100.956 223.600,99.345 223.600 C 99.045 223.600,98.800 223.420,98.800 223.200 C 98.800 222.980,98.260 222.800,97.600 222.800 C 96.940 222.800,96.400 222.620,96.400 222.400 C 96.400 222.163,94.933 222.000,92.800 222.000 C 90.667 222.000,89.200 222.163,89.200 222.400 M114.800 222.800 C 114.800 223.240,114.620 223.600,114.400 223.600 C 114.180 223.600,114.000 223.960,114.000 224.400 C 114.000 224.840,113.820 225.200,113.600 225.200 C 113.380 225.200,113.200 225.549,113.200 225.976 C 113.200 226.403,113.020 226.864,112.800 227.000 C 112.580 227.136,112.400 227.687,112.400 228.224 C 112.400 228.761,112.220 229.200,112.000 229.200 C 111.780 229.200,111.600 229.560,111.600 230.000 C 111.600 230.440,111.420 230.800,111.200 230.800 C 110.980 230.800,110.800 231.160,110.800 231.600 C 110.800 232.040,110.620 232.400,110.400 232.400 C 110.180 232.400,110.000 232.749,110.000 233.176 C 110.000 233.603,109.820 234.064,109.600 234.200 C 109.380 234.336,109.200 234.887,109.200 235.424 C 109.200 235.961,109.020 236.400,108.800 236.400 C 108.580 236.400,108.400 236.760,108.400 237.200 C 108.400 237.640,108.220 238.000,108.000 238.000 C 107.780 238.000,107.600 238.360,107.600 238.800 C 107.600 239.240,107.420 239.600,107.200 239.600 C 106.980 239.600,106.800 240.039,106.800 240.576 C 106.800 241.113,106.620 241.664,106.400 241.800 C 104.826 242.773,106.027 244.400,108.320 244.400 C 110.725 244.400,111.600 243.952,111.600 242.720 C 111.600 242.324,111.780 242.000,112.000 242.000 C 112.220 242.000,112.400 241.635,112.400 241.188 C 112.400 240.409,112.605 240.381,117.500 240.488 L 122.600 240.600 122.727 241.700 C 122.796 242.305,123.021 242.800,123.227 242.800 C 123.432 242.800,123.600 243.160,123.600 243.600 C 123.600 244.324,123.867 244.400,126.400 244.400 L 129.200 244.400 129.200 243.200 C 129.200 242.540,129.020 242.000,128.800 242.000 C 128.580 242.000,128.400 241.640,128.400 241.200 C 128.400 240.760,128.220 240.400,128.000 240.400 C 127.780 240.400,127.600 239.961,127.600 239.424 C 127.600 238.887,127.420 238.336,127.200 238.200 C 126.980 238.064,126.800 237.603,126.800 237.176 C 126.800 236.749,126.620 236.400,126.400 236.400 C 126.180 236.400,126.000 236.040,126.000 235.600 C 126.000 235.160,125.820 234.800,125.600 234.800 C 125.380 234.800,125.200 234.451,125.200 234.024 C 125.200 233.597,125.020 233.136,124.800 233.000 C 124.580 232.864,124.400 232.313,124.400 231.776 C 124.400 231.239,124.220 230.800,124.000 230.800 C 123.780 230.800,123.600 230.440,123.600 230.000 C 123.600 229.560,123.420 229.200,123.200 229.200 C 122.980 229.200,122.800 228.840,122.800 228.400 C 122.800 227.960,122.620 227.600,122.400 227.600 C 122.180 227.600,122.000 227.161,122.000 226.624 C 122.000 226.087,121.820 225.536,121.600 225.400 C 121.380 225.264,121.200 224.803,121.200 224.376 C 121.200 223.949,121.020 223.600,120.800 223.600 C 120.580 223.600,120.400 223.240,120.400 222.800 C 120.400 222.076,120.133 222.000,117.600 222.000 C 115.067 222.000,114.800 222.076,114.800 222.800 M134.981 222.506 C 134.874 222.785,134.834 227.780,134.893 233.606 L 135.000 244.200 137.700 244.318 L 140.400 244.437 140.400 238.418 C 140.400 235.108,140.503 232.400,140.629 232.400 C 140.995 232.400,142.000 233.508,142.000 233.912 C 142.000 234.115,142.540 234.846,143.200 235.537 C 143.860 236.228,144.400 236.948,144.400 237.137 C 144.400 237.326,144.940 238.046,145.600 238.737 C 146.260 239.428,146.800 240.192,146.800 240.436 C 146.800 240.680,147.340 241.383,148.000 242.000 C 148.660 242.617,149.200 243.409,149.200 243.760 C 149.200 244.286,149.701 244.400,152.000 244.400 L 154.800 244.400 154.800 233.200 L 154.800 222.000 152.400 222.000 L 150.000 222.000 150.000 228.400 C 150.000 231.920,149.897 234.800,149.771 234.800 C 149.362 234.800,148.400 233.669,148.400 233.189 C 148.400 232.932,147.860 232.217,147.200 231.600 C 146.540 230.983,146.000 230.280,146.000 230.036 C 146.000 229.792,145.460 229.028,144.800 228.337 C 144.140 227.646,143.600 226.926,143.600 226.737 C 143.600 226.548,143.060 225.828,142.400 225.137 C 141.740 224.446,141.200 223.715,141.200 223.512 C 141.200 222.124,135.482 221.200,134.981 222.506 M170.000 222.400 C 170.000 222.620,169.584 222.800,169.075 222.800 C 168.567 222.800,167.802 223.115,167.375 223.500 C 166.949 223.885,166.107 224.454,165.505 224.765 C 164.902 225.076,164.183 225.841,163.907 226.465 C 163.631 227.089,163.269 227.600,163.102 227.600 C 162.936 227.600,162.800 227.949,162.800 228.376 C 162.800 228.803,162.620 229.264,162.400 229.400 C 162.179 229.537,162.000 231.337,162.000 233.424 C 162.000 235.675,162.162 237.200,162.400 237.200 C 162.620 237.200,162.800 237.626,162.800 238.146 C 162.800 239.243,166.767 243.600,167.765 243.600 C 168.114 243.600,168.400 243.780,168.400 244.000 C 168.400 244.220,169.120 244.400,170.000 244.400 C 170.880 244.400,171.600 244.580,171.600 244.800 C 171.600 245.020,172.500 245.200,173.600 245.200 C 174.700 245.200,175.600 245.020,175.600 244.800 C 175.600 244.580,176.320 244.400,177.200 244.400 C 178.080 244.400,178.800 244.220,178.800 244.000 C 178.800 243.780,179.035 243.600,179.322 243.600 C 179.992 243.600,182.800 241.039,182.800 240.428 C 182.800 238.816,178.557 236.930,178.089 238.333 C 178.003 238.590,177.603 238.800,177.200 238.800 C 176.797 238.800,176.402 238.995,176.322 239.233 C 176.239 239.483,175.130 239.661,173.691 239.654 C 171.098 239.641,167.600 237.237,167.600 235.468 C 167.600 235.126,167.420 234.736,167.200 234.600 C 166.980 234.464,166.800 233.913,166.800 233.376 C 166.800 232.839,166.980 232.400,167.200 232.400 C 167.420 232.400,167.600 231.985,167.600 231.478 C 167.600 230.396,170.018 227.600,170.954 227.600 C 171.309 227.600,171.600 227.420,171.600 227.200 C 171.600 226.980,172.500 226.800,173.600 226.800 C 174.700 226.800,175.600 226.980,175.600 227.200 C 175.600 227.420,175.920 227.600,176.312 227.600 C 176.703 227.600,177.283 227.960,177.600 228.400 C 178.350 229.440,180.708 229.508,181.092 228.500 C 181.239 228.115,181.684 227.451,182.080 227.025 C 183.081 225.947,181.756 223.600,180.145 223.600 C 179.845 223.600,179.600 223.420,179.600 223.200 C 179.600 222.980,179.060 222.800,178.400 222.800 C 177.740 222.800,177.200 222.620,177.200 222.400 C 177.200 222.163,175.733 222.000,173.600 222.000 C 171.467 222.000,170.000 222.163,170.000 222.400 M189.200 233.192 L 189.200 244.400 197.600 244.400 L 206.000 244.400 206.000 242.400 L 206.000 240.400 200.000 240.400 L 194.000 240.400 194.000 238.000 L 194.000 235.600 199.200 235.600 L 204.400 235.600 204.400 233.200 L 204.400 230.800 199.200 230.800 L 194.000 230.800 194.000 228.800 L 194.000 226.800 200.020 226.800 L 206.040 226.800 205.920 224.500 L 205.800 222.200 197.500 222.092 L 189.200 221.984 189.200 233.192 M213.200 233.200 L 213.200 244.400 216.000 244.400 L 218.800 244.400 218.800 241.600 L 218.800 238.800 221.200 238.800 C 222.913 238.800,223.600 238.950,223.600 239.325 C 223.600 239.613,223.960 240.236,224.400 240.708 C 224.840 241.180,225.200 241.844,225.200 242.183 C 225.200 242.522,225.359 242.800,225.553 242.800 C 225.748 242.800,226.001 243.160,226.116 243.600 C 226.302 244.311,226.662 244.400,229.363 244.400 C 232.133 244.400,232.400 244.330,232.400 243.600 C 232.400 243.160,232.220 242.800,232.000 242.800 C 231.780 242.800,231.600 242.564,231.600 242.275 C 231.600 241.987,231.240 241.364,230.800 240.892 C 230.360 240.420,230.000 239.880,230.000 239.692 C 230.000 239.504,229.637 238.961,229.192 238.484 L 228.385 237.617 229.992 235.960 C 231.278 234.636,231.600 234.009,231.600 232.832 C 231.600 232.022,231.820 231.140,232.090 230.870 C 232.477 230.483,232.477 230.215,232.090 229.595 C 231.820 229.164,231.600 228.178,231.600 227.405 C 231.600 226.632,231.463 226.000,231.295 226.000 C 231.127 226.000,230.812 225.595,230.595 225.100 C 230.378 224.605,229.795 224.022,229.300 223.805 C 228.805 223.588,228.400 223.273,228.400 223.105 C 228.400 222.937,227.860 222.800,227.200 222.800 C 226.540 222.800,226.000 222.620,226.000 222.400 C 226.000 222.150,223.600 222.000,219.600 222.000 L 213.200 222.000 213.200 233.200 M238.000 224.400 L 238.000 226.800 241.600 226.800 C 245.820 226.800,245.759 226.708,243.200 229.200 C 241.377 230.976,241.200 231.309,241.200 232.974 L 241.200 234.800 243.405 234.800 C 246.360 234.800,248.400 235.943,248.400 237.600 C 248.400 239.481,243.912 241.476,243.000 240.000 C 242.864 239.780,242.443 239.600,242.065 239.600 C 241.686 239.600,241.117 239.240,240.800 238.800 C 239.872 237.513,238.000 238.162,238.000 239.771 C 238.000 240.117,237.820 240.400,237.600 240.400 C 236.993 240.400,237.122 242.379,237.771 243.029 C 238.086 243.343,238.626 243.600,238.971 243.600 C 239.317 243.600,239.600 243.780,239.600 244.000 C 239.600 244.220,240.320 244.400,241.200 244.400 C 242.080 244.400,242.800 244.580,242.800 244.800 C 242.800 245.020,243.779 245.200,244.976 245.200 C 246.173 245.200,247.264 245.020,247.400 244.800 C 247.536 244.580,248.106 244.400,248.668 244.400 C 249.346 244.400,250.277 243.803,251.444 242.619 L 253.200 240.838 253.200 237.606 C 253.200 233.974,251.703 231.600,249.413 231.600 C 248.054 231.600,248.097 230.609,249.515 229.260 C 251.611 227.269,252.400 225.785,252.400 223.838 L 252.400 222.000 245.200 222.000 L 238.000 222.000 238.000 224.400 M265.400 222.400 C 265.264 222.620,264.889 222.800,264.566 222.800 C 264.243 222.800,263.174 223.605,262.189 224.589 C 261.205 225.574,260.400 226.643,260.400 226.966 C 260.400 227.289,260.220 227.664,260.000 227.800 C 259.780 227.936,259.600 228.656,259.600 229.400 C 259.600 230.144,259.420 230.864,259.200 231.000 C 258.980 231.136,258.800 232.396,258.800 233.800 C 258.800 235.204,258.980 236.464,259.200 236.600 C 259.420 236.736,259.600 237.467,259.600 238.224 C 259.600 238.981,259.780 239.600,260.000 239.600 C 260.220 239.600,260.400 239.890,260.400 240.244 C 260.400 241.281,263.820 244.400,264.958 244.400 C 265.505 244.400,266.064 244.580,266.200 244.800 C 266.336 245.020,267.427 245.200,268.624 245.200 C 269.821 245.200,270.800 245.020,270.800 244.800 C 270.800 244.580,271.268 244.400,271.840 244.400 C 272.558 244.400,273.422 243.825,274.640 242.536 L 276.400 240.673 276.400 236.936 C 276.400 234.881,276.263 233.200,276.095 233.200 C 275.927 233.200,275.612 232.795,275.395 232.300 C 275.178 231.805,274.595 231.222,274.100 231.005 C 273.605 230.788,273.200 230.473,273.200 230.305 C 273.200 230.137,272.658 230.000,271.995 230.000 C 271.332 230.000,270.443 229.784,270.019 229.519 C 269.436 229.155,269.025 229.149,268.325 229.494 C 265.151 231.059,264.025 230.082,266.282 227.722 C 267.227 226.733,271.669 226.341,272.200 227.200 C 272.549 227.764,274.360 227.698,274.959 227.098 C 276.442 225.615,275.728 222.800,273.869 222.800 C 273.501 222.800,273.200 222.620,273.200 222.400 C 273.200 222.162,271.675 222.000,269.424 222.000 C 267.337 222.000,265.537 222.179,265.400 222.400 M288.600 222.400 C 288.464 222.620,288.003 222.800,287.576 222.800 C 287.149 222.800,286.800 222.980,286.800 223.200 C 286.800 223.420,286.517 223.600,286.171 223.600 C 285.826 223.600,285.286 223.857,284.971 224.171 C 284.657 224.486,284.400 225.026,284.400 225.371 C 284.400 225.717,284.220 226.000,284.000 226.000 C 283.780 226.000,283.600 226.360,283.600 226.800 C 283.600 227.240,283.420 227.600,283.200 227.600 C 282.980 227.600,282.800 228.320,282.800 229.200 C 282.800 230.080,282.620 230.800,282.400 230.800 C 282.175 230.800,282.000 231.925,282.000 233.376 C 282.000 234.793,282.180 236.064,282.400 236.200 C 282.620 236.336,282.800 237.157,282.800 238.024 C 282.800 238.891,282.980 239.600,283.200 239.600 C 283.420 239.600,283.600 239.888,283.600 240.240 C 283.600 241.662,287.196 244.400,289.064 244.400 C 290.019 244.400,290.800 244.580,290.800 244.800 C 290.800 245.020,291.329 245.200,291.976 245.200 C 292.623 245.200,293.264 245.020,293.400 244.800 C 293.536 244.580,294.328 244.400,295.160 244.400 C 296.808 244.400,300.400 241.548,300.400 240.240 C 300.400 239.888,300.580 239.600,300.800 239.600 C 301.020 239.600,301.200 238.880,301.200 238.000 C 301.200 237.120,301.380 236.400,301.600 236.400 C 301.831 236.400,302.000 235.141,302.000 233.424 C 302.000 231.787,301.820 230.336,301.600 230.200 C 301.380 230.064,301.200 229.423,301.200 228.776 C 301.200 228.129,301.020 227.600,300.800 227.600 C 300.580 227.600,300.400 227.240,300.400 226.800 C 300.400 226.360,300.220 226.000,300.000 226.000 C 299.780 226.000,299.600 225.717,299.600 225.371 C 299.600 224.563,298.637 223.600,297.829 223.600 C 297.483 223.600,297.200 223.420,297.200 223.200 C 297.200 222.980,296.840 222.800,296.400 222.800 C 295.960 222.800,295.600 222.620,295.600 222.400 C 295.600 222.165,294.208 222.000,292.224 222.000 C 290.367 222.000,288.736 222.180,288.600 222.400 M314.229 224.171 C 315.299 225.242,314.591 227.600,313.200 227.600 C 312.433 227.600,311.600 226.511,311.600 225.509 C 311.600 223.793,313.091 223.034,314.229 224.171 M224.400 227.200 C 224.400 227.420,224.683 227.600,225.029 227.600 C 226.955 227.600,227.559 231.410,225.814 232.554 C 225.272 232.909,224.472 233.200,224.038 233.200 C 223.603 233.200,223.136 233.380,223.000 233.600 C 222.864 233.820,221.863 234.000,220.776 234.000 L 218.800 234.000 218.800 230.400 L 218.800 226.800 221.600 226.800 C 223.200 226.800,224.400 226.971,224.400 227.200 M294.618 227.782 C 295.158 228.322,295.600 229.042,295.600 229.382 C 295.600 229.722,295.780 230.000,296.000 230.000 C 296.237 230.000,296.400 231.467,296.400 233.600 C 296.400 235.733,296.237 237.200,296.000 237.200 C 295.780 237.200,295.600 237.478,295.600 237.818 C 295.600 239.017,293.735 240.400,292.118 240.400 C 290.467 240.399,288.400 238.997,288.400 237.877 C 288.400 237.531,288.220 237.136,288.000 237.000 C 287.780 236.864,287.600 235.233,287.600 233.376 C 287.600 231.392,287.765 230.000,288.000 230.000 C 288.220 230.000,288.400 229.724,288.400 229.386 C 288.400 227.025,292.741 225.905,294.618 227.782 M118.000 230.400 C 118.000 231.060,118.180 231.600,118.400 231.600 C 118.620 231.600,118.800 231.960,118.800 232.400 C 118.800 232.840,118.980 233.200,119.200 233.200 C 119.420 233.200,119.600 233.524,119.600 233.920 C 119.600 234.316,119.816 234.856,120.080 235.120 C 120.453 235.493,119.920 235.600,117.680 235.600 C 115.050 235.600,114.162 235.242,115.200 234.600 C 115.420 234.464,115.600 233.913,115.600 233.376 C 115.600 232.839,115.780 232.400,116.000 232.400 C 116.220 232.400,116.400 232.040,116.400 231.600 C 116.400 231.160,116.580 230.800,116.800 230.800 C 117.020 230.800,117.200 230.440,117.200 230.000 C 117.200 229.560,117.380 229.200,117.600 229.200 C 117.820 229.200,118.000 229.740,118.000 230.400 M270.618 234.982 C 272.229 236.593,271.715 239.600,269.829 239.600 C 269.483 239.600,269.200 239.780,269.200 240.000 C 269.200 241.475,266.136 239.847,264.930 237.731 C 263.567 235.340,268.562 232.925,270.618 234.982 " stroke="none" fill="#040404" fill-rule="evenodd"></path><path id="path3" d="" stroke="none" fill="#403864" fill-rule="evenodd"></path><path id="path4" d="" stroke="none" fill="#443804" fill-rule="evenodd"></path></g></svg>